<svg width="1440" height="558" viewBox="0 0 1440 558" fill="none" xmlns="http://www.w3.org/2000/svg">
	<path d="M-675 241.591C-591.045 242.338 344.414 248.046 347.298 243.384C343.093 211.854 336.214 148.615 342.342 147.898H347.298M347.298 147.898L347.957 134.449M347.298 147.898C347.188 150.139 409.926 160.002 440.114 160.45C464.264 160.809 496.434 155.818 509.5 153.277C502.742 112.483 514.006 138.484 509.5 134.449C504.994 130.414 445.971 141.622 429.75 143.415C416.774 144.849 369.815 138.035 347.957 134.449M347.298 147.898C353.005 212.601 366.041 344.25 372.529 353.216C380.639 364.423 477.961 355.457 477.961 353.216C477.961 350.974 496.884 180.175 495.533 162.691C494.181 145.208 459.488 219.625 495.533 243.384L761.081 241.591C755.224 270.132 726.568 330.263 658.803 342.457C574.098 357.699 433.072 369.802 444.336 451.392L452.446 453.633C497.803 479.485 591.399 531.995 602.934 535.222C670.518 509.67 815.148 465.558 852.996 493.531C900.305 528.498 908.865 518.187 900.305 518.635C900.905 504.888 894.538 476.048 864.26 470.668C861.106 470.668 809.742 454.081 636.275 508.773C581.457 484.715 470.649 434.805 465.963 427.632C460.106 418.666 635.374 496.221 632.22 493.531C629.067 490.841 492.546 423.598 492.546 418.218C492.546 412.839 649.792 495.773 654.298 487.703C658.803 479.634 886.788 387.286 903.008 516.394C900.305 487.853 911.749 431.577 979.153 434.805C1063.41 438.839 1130.99 457.668 1157.12 444.667C1149.32 452.438 1119.64 467.261 1063.41 464.392C993.121 460.806 960.229 460.806 948.965 464.392C937.701 467.978 921.481 502.049 925.086 512.808C932.295 495.324 958.157 462.42 1003.93 470.668C1061.16 480.979 1198.13 484.117 1193.17 477.393M349.1 111.138C400.765 115.471 504.363 120.821 505.445 107.552C506.797 90.9647 319.363 85.5852 349.1 111.138ZM349.1 111.138L347.957 134.449M347.957 134.449C345.635 129.667 341.801 117.593 345.045 107.552M774.147 291.8C765.136 289.11 716.025 344.25 720.531 353.216C724.135 360.388 885.737 356.204 966.087 353.216L1071.97 410.177M774.147 291.8C783.159 294.489 753.421 140.725 771.895 8.03067C854.498 3.69718 1054.4 -1.83176 1193.17 10.7204C1193.77 88.8727 1193.62 248.495 1188.21 261.764C1056.8 264.155 793.431 268.219 791.269 265.35C788.565 261.764 783.159 36.7214 787.214 23.7209C880.93 19.3874 1090.26 13.3205 1177.85 23.7209C1178.3 105.908 1178.3 272.433 1174.7 281.041C1170.19 291.8 1149.92 241.591 1208.94 241.591L2299.5 243.384M774.147 291.8C772.775 297.431 769.905 305.934 765.647 313.766M774.147 291.8H1193.17C1216.75 308.685 1263.91 343.174 1263.91 346.043C1263.91 348.912 1074.07 352.02 979.153 353.216C982.607 355.009 989.696 359.402 990.417 362.63C991.318 366.664 1263.91 363.078 1263.91 358.595C1263.91 354.112 1227.86 322.732 1213.45 317.352C1201.91 313.049 910.107 313.168 765.647 313.766M765.647 313.766C760.866 322.56 754.336 330.508 746.213 332.594C730.855 336.539 752.77 321.686 765.647 313.766ZM1071.97 410.177L1198.58 478.289C1217.5 490.393 1221.1 485.014 1221.1 487.255C1221.1 489.496 1131.44 498.462 1063.41 498.911C995.373 499.359 949.416 516.394 948.965 523.567C948.605 529.305 892.345 528.348 864.26 527.153C804.335 489.496 597.077 552.257 593.021 554.947C589.777 557.099 487.44 493.083 436.677 460.806C432.471 456.024 421.718 446.64 412.346 447.357C400.632 448.254 440.732 463.496 446.589 458.564C452.446 453.633 490.293 399.838 502.909 398.941C515.525 398.045 646.638 348.733 739.003 385.493C783.759 411.344 873.451 461.702 874.172 456.323C875.073 449.598 757.026 386.668 742.608 384.148C787.664 371.147 892.645 347.746 952.119 358.147C957.376 359.043 968.34 361.195 970.142 362.63C971.944 364.064 1038.78 394.926 1071.97 410.177ZM1071.97 410.177C1114.17 426.904 1198.58 463.047 1198.58 473.806" stroke="#202020" stroke-width="5" />
</svg>
