<svg width="169" height="25" viewBox="0 0 169 25" fill="none" xmlns="http://www.w3.org/2000/svg">
	<path d="M44.7269 24V4.736H37.8469V1.6H55.0629V4.736H48.1829V24H44.7269ZM58.1954 24V1.6H67.6034C68.99 1.6 70.206 1.84533 71.2514 2.336C72.318 2.80533 73.1394 3.488 73.7154 4.384C74.3127 5.28 74.6114 6.3467 74.6114 7.584V7.936C74.6114 9.344 74.27 10.4747 73.5874 11.328C72.926 12.16 72.1154 12.7467 71.1554 13.088V13.6C71.966 13.6427 72.6167 13.92 73.1074 14.432C73.598 14.9227 73.8434 15.6373 73.8434 16.576V24H70.3554V17.056C70.3554 16.48 70.206 16.0213 69.9074 15.68C69.6087 15.3387 69.1287 15.168 68.4674 15.168H61.6514V24H58.1954ZM61.6514 12.032H67.2194C68.4567 12.032 69.4167 11.7227 70.0994 11.104C70.782 10.464 71.1234 9.6 71.1234 8.512V8.256C71.1234 7.168 70.782 6.3147 70.0994 5.696C69.438 5.056 68.478 4.736 67.2194 4.736H61.6514V12.032ZM78.4141 24V1.6H81.8701V24H78.4141ZM86.5391 24V1.6H93.1951L99.2751 21.696H99.7871V1.6H103.211V24H96.5551L90.4751 3.872H89.9631V24H86.5391ZM107.883 24V1.6H111.339V24H107.883ZM121.352 24V4.736H114.472V1.6H131.688V4.736H124.808V24H121.352ZM130.938 24L137.338 1.6H143.418L149.786 24H146.234L144.762 18.72H135.994L134.522 24H130.938ZM136.858 15.52H143.898L140.634 3.744H140.122L136.858 15.52ZM160.405 24.448C158.72 24.448 157.226 24.1493 155.925 23.552C154.624 22.9547 153.6 22.08 152.853 20.928C152.128 19.7547 151.765 18.336 151.765 16.672V15.872H155.189V16.672C155.189 18.2507 155.658 19.4347 156.597 20.224C157.557 21.0133 158.826 21.408 160.405 21.408C162.005 21.408 163.21 21.0773 164.021 20.416C164.832 19.7333 165.237 18.8587 165.237 17.792C165.237 17.088 165.045 16.512 164.661 16.064C164.277 15.616 163.733 15.264 163.029 15.008C162.325 14.7307 161.482 14.4747 160.501 14.24L159.317 13.952C157.888 13.6107 156.64 13.1947 155.573 12.704C154.528 12.192 153.717 11.52 153.141 10.688C152.565 9.856 152.277 8.7893 152.277 7.488C152.277 6.1653 152.597 5.0347 153.237 4.096C153.898 3.15733 154.805 2.432 155.957 1.92C157.109 1.408 158.464 1.152 160.021 1.152C161.578 1.152 162.965 1.41867 164.181 1.952C165.418 2.48533 166.389 3.27467 167.093 4.32C167.797 5.3653 168.149 6.6773 168.149 8.256V9.408H164.725V8.256C164.725 7.296 164.522 6.5173 164.117 5.92C163.733 5.3227 163.189 4.8853 162.485 4.608C161.781 4.3307 160.96 4.192 160.021 4.192C158.656 4.192 157.589 4.48 156.821 5.056C156.074 5.6107 155.701 6.3893 155.701 7.392C155.701 8.0747 155.861 8.64 156.181 9.088C156.522 9.5147 157.013 9.8667 157.653 10.144C158.293 10.4213 159.093 10.6667 160.053 10.88L161.237 11.168C162.688 11.488 163.968 11.904 165.077 12.416C166.186 12.9067 167.061 13.5787 167.701 14.432C168.341 15.2853 168.661 16.384 168.661 17.728C168.661 19.072 168.32 20.2453 167.637 21.248C166.976 22.2507 166.026 23.04 164.789 23.616C163.552 24.1707 162.09 24.448 160.405 24.448Z" fill="#202020" />
	<path d="M25.9886 13.2084C23.2272 13.2084 20.9886 15.447 20.9886 18.2084C20.9886 20.9699 23.2272 23.2084 25.9886 23.2084C28.75 23.2084 30.9886 20.9699 30.9886 18.2084C30.9886 15.447 28.75 13.2084 25.9886 13.2084Z" fill="#202020" />
	<path d="M16.1259 0.103966C13.3645 0.103966 11.1259 2.34254 11.1259 5.10397C11.1259 7.86539 13.3645 10.104 16.1259 10.104C18.8873 10.104 21.1259 7.86539 21.1259 5.10397C21.1259 2.34254 18.8873 0.103966 16.1259 0.103966Z" fill="#202020" />
	<path d="M5.9897 12.998C3.22828 12.998 0.9897 15.2366 0.9897 17.998C0.9897 20.7595 3.22828 22.998 5.9897 22.998C8.75112 22.998 10.9897 20.7595 10.9897 17.998C10.9897 15.2366 8.75112 12.998 5.9897 12.998Z" fill="#202020" />
</svg>
