<svg width="169" height="24" viewBox="0 0 169 24" fill="none" xmlns="http://www.w3.org/2000/svg">
<path d="M44.7269 23V3.736H37.8469V0.6H55.0629V3.736H48.1829V23H44.7269ZM58.1954 23V0.6H67.6034C68.99 0.6 70.206 0.845331 71.2514 1.336C72.318 1.80533 73.1394 2.488 73.7154 3.384C74.3127 4.28 74.6114 5.3467 74.6114 6.584V6.936C74.6114 8.344 74.27 9.4747 73.5874 10.328C72.926 11.16 72.1154 11.7467 71.1554 12.088V12.6C71.966 12.6427 72.6167 12.92 73.1074 13.432C73.598 13.9227 73.8434 14.6373 73.8434 15.576V23H70.3554V16.056C70.3554 15.48 70.206 15.0213 69.9074 14.68C69.6087 14.3387 69.1287 14.168 68.4674 14.168H61.6514V23H58.1954ZM61.6514 11.032H67.2194C68.4567 11.032 69.4167 10.7227 70.0994 10.104C70.782 9.464 71.1234 8.6 71.1234 7.512V7.256C71.1234 6.168 70.782 5.3147 70.0994 4.696C69.438 4.056 68.478 3.736 67.2194 3.736H61.6514V11.032ZM78.4141 23V0.6H81.8701V23H78.4141ZM86.5391 23V0.6H93.1951L99.2751 20.696H99.7871V0.6H103.211V23H96.5551L90.4751 2.872H89.9631V23H86.5391ZM107.883 23V0.6H111.339V23H107.883ZM121.352 23V3.736H114.472V0.6H131.688V3.736H124.808V23H121.352ZM130.938 23L137.338 0.6H143.418L149.786 23H146.234L144.762 17.72H135.994L134.522 23H130.938ZM136.858 14.52H143.898L140.634 2.744H140.122L136.858 14.52ZM160.405 23.448C158.72 23.448 157.226 23.1493 155.925 22.552C154.624 21.9547 153.6 21.08 152.853 19.928C152.128 18.7547 151.765 17.336 151.765 15.672V14.872H155.189V15.672C155.189 17.2507 155.658 18.4347 156.597 19.224C157.557 20.0133 158.826 20.408 160.405 20.408C162.005 20.408 163.21 20.0773 164.021 19.416C164.832 18.7333 165.237 17.8587 165.237 16.792C165.237 16.088 165.045 15.512 164.661 15.064C164.277 14.616 163.733 14.264 163.029 14.008C162.325 13.7307 161.482 13.4747 160.501 13.24L159.317 12.952C157.888 12.6107 156.64 12.1947 155.573 11.704C154.528 11.192 153.717 10.52 153.141 9.688C152.565 8.856 152.277 7.7893 152.277 6.488C152.277 5.1653 152.597 4.0347 153.237 3.096C153.898 2.15733 154.805 1.432 155.957 0.920001C157.109 0.408001 158.464 0.152 160.021 0.152C161.578 0.152 162.965 0.418671 164.181 0.952001C165.418 1.48533 166.389 2.27467 167.093 3.32C167.797 4.3653 168.149 5.6773 168.149 7.256V8.408H164.725V7.256C164.725 6.296 164.522 5.5173 164.117 4.92C163.733 4.3227 163.189 3.8853 162.485 3.608C161.781 3.3307 160.96 3.192 160.021 3.192C158.656 3.192 157.589 3.48 156.821 4.056C156.074 4.6107 155.701 5.3893 155.701 6.392C155.701 7.0747 155.861 7.64 156.181 8.088C156.522 8.5147 157.013 8.8667 157.653 9.144C158.293 9.4213 159.093 9.6667 160.053 9.88L161.237 10.168C162.688 10.488 163.968 10.904 165.077 11.416C166.186 11.9067 167.061 12.5787 167.701 13.432C168.341 14.2853 168.661 15.384 168.661 16.728C168.661 18.072 168.32 19.2453 167.637 20.248C166.976 21.2507 166.026 22.04 164.789 22.616C163.552 23.1707 162.09 23.448 160.405 23.448Z" fill="black"/>
<path d="M5 10C7.76142 10 10 7.76142 10 5C10 2.23858 7.76142 0 5 0C2.23858 0 0 2.23858 0 5C0 7.76142 2.23858 10 5 10Z" fill="#202020"/>
<path d="M15 23C17.7614 23 20 20.7614 20 18C20 15.2386 17.7614 13 15 13C12.2386 13 10 15.2386 10 18C10 20.7614 12.2386 23 15 23Z" fill="#202020"/>
<path d="M25 10C27.7614 10 30 7.76142 30 5C30 2.23858 27.7614 0 25 0C22.2386 0 20 2.23858 20 5C20 7.76142 22.2386 10 25 10Z" fill="#202020"/>
</svg>
