<svg width="170" height="38" viewBox="0 0 170 38" fill="none" xmlns="http://www.w3.org/2000/svg">
	<path d="M44.7269 30V10.736H37.8469V7.6H55.0629V10.736H48.1829V30H44.7269ZM58.1954 30V7.6H67.6034C68.99 7.6 70.206 7.84533 71.2514 8.336C72.318 8.80533 73.1394 9.488 73.7154 10.384C74.3127 11.28 74.6114 12.3467 74.6114 13.584V13.936C74.6114 15.344 74.27 16.4747 73.5874 17.328C72.926 18.16 72.1154 18.7467 71.1554 19.088V19.6C71.966 19.6427 72.6167 19.92 73.1074 20.432C73.598 20.9227 73.8434 21.6373 73.8434 22.576V30H70.3554V23.056C70.3554 22.48 70.206 22.0213 69.9074 21.68C69.6087 21.3387 69.1287 21.168 68.4674 21.168H61.6514V30H58.1954ZM61.6514 18.032H67.2194C68.4567 18.032 69.4167 17.7227 70.0994 17.104C70.782 16.464 71.1234 15.6 71.1234 14.512V14.256C71.1234 13.168 70.782 12.3147 70.0994 11.696C69.438 11.056 68.478 10.736 67.2194 10.736H61.6514V18.032ZM78.4141 30V7.6H81.8701V30H78.4141ZM86.5391 30V7.6H93.1951L99.2751 27.696H99.7871V7.6H103.211V30H96.5551L90.4751 9.872H89.9631V30H86.5391ZM107.883 30V7.6H111.339V30H107.883ZM121.352 30V10.736H114.472V7.6H131.688V10.736H124.808V30H121.352ZM130.938 30L137.338 7.6H143.418L149.786 30H146.234L144.762 24.72H135.994L134.522 30H130.938ZM136.858 21.52H143.898L140.634 9.744H140.122L136.858 21.52ZM160.405 30.448C158.72 30.448 157.226 30.1493 155.925 29.552C154.624 28.9547 153.6 28.08 152.853 26.928C152.128 25.7547 151.765 24.336 151.765 22.672V21.872H155.189V22.672C155.189 24.2507 155.658 25.4347 156.597 26.224C157.557 27.0133 158.826 27.408 160.405 27.408C162.005 27.408 163.21 27.0773 164.021 26.416C164.832 25.7333 165.237 24.8587 165.237 23.792C165.237 23.088 165.045 22.512 164.661 22.064C164.277 21.616 163.733 21.264 163.029 21.008C162.325 20.7307 161.482 20.4747 160.501 20.24L159.317 19.952C157.888 19.6107 156.64 19.1947 155.573 18.704C154.528 18.192 153.717 17.52 153.141 16.688C152.565 15.856 152.277 14.7893 152.277 13.488C152.277 12.1653 152.597 11.0347 153.237 10.096C153.898 9.15733 154.805 8.432 155.957 7.92C157.109 7.408 158.464 7.152 160.021 7.152C161.578 7.152 162.965 7.41867 164.181 7.952C165.418 8.48533 166.389 9.27467 167.093 10.32C167.797 11.3653 168.149 12.6773 168.149 14.256V15.408H164.725V14.256C164.725 13.296 164.522 12.5173 164.117 11.92C163.733 11.3227 163.189 10.8853 162.485 10.608C161.781 10.3307 160.96 10.192 160.021 10.192C158.656 10.192 157.589 10.48 156.821 11.056C156.074 11.6107 155.701 12.3893 155.701 13.392C155.701 14.0747 155.861 14.64 156.181 15.088C156.522 15.5147 157.013 15.8667 157.653 16.144C158.293 16.4213 159.093 16.6667 160.053 16.88L161.237 17.168C162.688 17.488 163.968 17.904 165.077 18.416C166.186 18.9067 167.061 19.5787 167.701 20.432C168.341 21.2853 168.661 22.384 168.661 23.728C168.661 25.072 168.32 26.2453 167.637 27.248C166.976 28.2507 166.026 29.04 164.789 29.616C163.552 30.1707 162.09 30.448 160.405 30.448Z" fill="black" />
	<circle cx="5" cy="12" r="5" fill="#202020" />
	<circle cx="15" cy="25" r="5" fill="#202020" />
	<circle cx="25" cy="12" r="5" fill="#202020" />
</svg>
